<svg width="53" height="65" viewBox="0 0 53 65" fill="none" xmlns="http://www.w3.org/2000/svg">
<path d="M49.4871 8.82236C48.556 8.82338 47.6634 9.19192 47.0049 9.84718C46.3463 10.5024 45.9757 11.3909 45.9741 12.3179V29.0386C45.9741 29.2439 45.8922 29.4408 45.7464 29.586C45.6005 29.7312 45.4028 29.8128 45.1965 29.8128C44.9903 29.8128 44.7925 29.7312 44.6467 29.586C44.5008 29.4408 44.4189 29.2439 44.4189 29.0386V4.09976C44.4179 3.01285 43.9837 1.97076 43.2118 1.2022C42.4398 0.433639 41.3931 0.00141474 40.3014 0.000389843C39.7493 -0.00722326 39.2014 0.0967401 38.6908 0.305994C38.1802 0.515248 37.7176 0.825439 37.3309 1.21781C36.5838 2.00019 36.1724 3.04161 36.1839 4.12105V29.0386C36.1839 29.2439 36.102 29.4408 35.9561 29.586C35.8103 29.7312 35.6125 29.8128 35.4063 29.8128C35.2 29.8128 35.0022 29.7312 34.8564 29.586C34.7106 29.4408 34.6286 29.2439 34.6286 29.0386V4.42492C34.6271 3.25193 34.1584 2.12743 33.3253 1.298C32.4922 0.46857 31.3627 0.00192617 30.1845 0.000389843C27.4026 0.000389843 25.7404 2.39266 25.7404 4.70363V29.0386C25.7404 29.2439 25.6585 29.4408 25.5126 29.586C25.3668 29.7312 25.169 29.8128 24.9628 29.8128C24.7565 29.8128 24.5588 29.7312 24.4129 29.586C24.2671 29.4408 24.1852 29.2439 24.1852 29.0386V9.10301C24.1841 8.0161 23.75 6.974 22.978 6.20545C22.2061 5.43689 21.1594 5.00466 20.0677 5.00364C17.4898 5.00364 15.9501 7.21977 15.9501 9.3643V39.6141H25.0872C26.8897 39.6137 28.6712 40.0002 30.31 40.7474C31.9489 41.4946 33.4066 42.5848 34.5839 43.9438C34.7187 44.0991 34.786 44.3013 34.771 44.506C34.7561 44.7107 34.6601 44.9011 34.5042 45.0354C34.3482 45.1696 34.1451 45.2366 33.9395 45.2217C33.7339 45.2068 33.5426 45.1113 33.4078 44.9561C32.3762 43.7655 31.099 42.8103 29.6631 42.1556C28.2273 41.501 26.6665 41.1622 25.0872 41.1625H15.1725C15.138 41.1613 15.1036 41.158 15.0695 41.1528H15.0287C14.9649 41.1392 14.903 41.1184 14.844 41.0909L14.8031 41.0696C14.7521 41.0414 14.7039 41.0083 14.6593 40.9709L14.6399 40.9554L10.7848 37.3496C9.39902 36.0427 7.55553 35.3262 5.64697 35.3526C3.7384 35.379 1.9156 36.1462 0.566829 37.4909C0.214477 37.8371 0.0113474 38.3063 0.000461161 38.7991C-0.0104251 39.2919 0.171789 39.7695 0.50851 40.1309L15.1103 55.9032C20.9678 62.3677 26.9204 65 35.657 65C45.2198 65 53 57.1748 53 47.5535V12.4901C53.0077 10.7114 51.7694 8.82236 49.4871 8.82236Z" fill="#F5F5F5"/>
</svg>
