<svg width="53" height="50" viewBox="0 0 53 50" fill="none" xmlns="http://www.w3.org/2000/svg">
<path d="M36.7515 38.0498L47.5987 38.0498C49.0312 38.0498 50.4051 37.4443 51.418 36.3666C52.4309 35.2889 53 33.8271 53 32.303C53 30.7789 52.4309 29.3171 51.418 28.2394C50.4051 27.1617 49.0312 26.5562 47.5987 26.5562L37.0501 26.5562L37.0501 36.6925C37.0493 37.1633 36.9472 37.6276 36.7515 38.0498Z" fill="#F5F5F5"/>
<path d="M37.4053 12.1892L48.4508 12.1892C49.6573 12.1892 50.8144 11.6847 51.6676 10.7866C52.5207 9.88844 53 8.67035 53 7.40023C53 6.13011 52.5207 4.91201 51.6676 4.0139C50.8144 3.11579 49.6573 2.61124 48.4508 2.61124L34.8399 2.61124C36.5015 4.77081 37.4072 7.4661 37.4053 10.2452L37.4053 12.1892Z" fill="#F5F5F5"/>
<path d="M25.824 44.8015C25.8252 43.5954 26.143 42.4109 26.7454 41.3668C27.3479 40.3227 28.2139 39.4558 29.2564 38.8531C27.3318 38.0767 25.6826 36.7418 24.5203 35.0197C23.358 33.2975 22.7358 31.2666 22.7333 29.1876L22.7333 22.2033C21.7111 23.8837 20.275 25.2726 18.5628 26.2366C16.8506 27.2007 14.9199 27.7075 12.956 27.7084L9.81079 27.7084C9.58835 27.7084 9.37503 27.6198 9.21774 27.4622C9.06045 27.3046 8.97207 27.0908 8.97207 26.8679C8.97207 26.645 9.06045 26.4312 9.21774 26.2736C9.37503 26.116 9.58835 26.0274 9.81079 26.0274L12.956 26.0274C15.5481 26.0241 18.033 24.9907 19.8659 23.154C21.6988 21.3173 22.73 18.8271 22.7333 16.2296L22.7333 16.0804C22.7333 15.8575 22.8217 15.6437 22.979 15.4861C23.1363 15.3285 23.3496 15.2399 23.572 15.2399C23.7945 15.2399 24.0078 15.3285 24.1651 15.4861C24.3224 15.6437 24.4107 15.8575 24.4107 16.0804L24.4107 29.1897C24.413 31.5052 25.3317 33.7253 26.9654 35.3628C28.5991 37.0004 30.8143 37.9216 33.125 37.9244L34.4733 37.9244C34.8225 37.9244 35.1574 37.7853 35.4044 37.5379C35.6513 37.2904 35.79 36.9548 35.79 36.6048L35.79 10.1803C35.79 8.70269 35.4686 7.24289 34.8483 5.90244C34.228 4.56199 33.3237 3.37309 32.1982 2.41847C32.0326 2.27769 31.8648 2.13901 31.6908 2.01084C31.6195 1.95621 31.5461 1.90578 31.4811 1.85535C31.3008 1.72718 31.1184 1.60321 30.9297 1.48764C30.8689 1.44982 30.806 1.4141 30.7431 1.37838C30.5334 1.26071 30.3363 1.14935 30.1287 1.04429L30.026 0.993863C29.7827 0.876197 29.5353 0.771136 29.2837 0.674482C29.2502 0.661875 29.2187 0.647166 29.1851 0.634559C28.9314 0.540005 28.6714 0.455959 28.4093 0.380317C28.3758 0.380317 28.3422 0.361405 28.3087 0.353C28.0445 0.279459 27.7782 0.218523 27.5098 0.168094L27.405 0.149185C27.1345 0.100857 26.8598 0.063036 26.5851 0.0378218C26.5537 0.0378218 26.5222 0.0378218 26.4887 0.0378218C26.2035 0.0147087 25.9183 1.8852e-06 25.6311 1.87264e-06C24.9391 1.8424e-06 24.2577 0.0336204 23.5804 0.0882513C10.4021 1.13885 -9.20866e-05 12.2142 -9.26755e-05 25.6849L-9.2809e-05 28.7401C0.00822298 34.3756 2.24579 39.778 6.22218 43.7631C10.1986 47.7482 15.5894 49.991 21.2131 49.9999L28.2038 49.9999C27.4573 49.356 26.8583 48.5582 26.4476 47.6611C26.0369 46.764 25.8242 45.7886 25.824 44.8015Z" fill="#F5F5F5"/>
<path d="M47.757 24.6408C49.1475 24.6408 50.4811 24.0354 51.4644 22.9576C52.4476 21.8799 53 20.4182 53 18.894C53 17.3699 52.4476 15.9082 51.4644 14.8304C50.4811 13.7527 49.1475 13.1472 47.757 13.1472L37.7073 13.1472L37.7073 24.6408L47.757 24.6408Z" fill="#F5F5F5"/>
<path d="M45.7583 44.8017C45.7566 43.4237 45.2095 42.1026 44.237 41.1285C43.2644 40.1543 41.9459 39.6065 40.5708 39.6054L32.6869 39.6054C31.3294 39.6328 30.0368 40.1923 29.0864 41.1641C28.136 42.1358 27.6037 43.4421 27.6037 44.8027C27.6037 46.1633 28.136 47.4696 29.0864 48.4413C30.0368 49.413 31.3294 49.9726 32.6869 50L40.5708 50C41.9461 49.9983 43.2646 49.4501 44.2371 48.4756C45.2096 47.5011 45.7566 46.1798 45.7583 44.8017Z" fill="#F5F5F5"/>
</svg>
