<svg width="40" height="65" viewBox="0 0 40 65" fill="none" xmlns="http://www.w3.org/2000/svg">
<path d="M13.1354 35.832H20.1372V28.074C20.1375 27.2962 20.2951 26.5268 20.6004 25.8128C20.9056 25.0989 21.352 24.4556 21.9122 23.9225L24.5921 4.64608C24.7161 3.60257 24.4304 2.55152 23.7964 1.71858C23.1624 0.88564 22.2306 0.337213 21.2011 0.191043C20.1715 0.0448736 19.1264 0.312613 18.2899 0.936783C17.4535 1.56095 16.8925 2.49179 16.7273 3.52945L13.0129 29.2809C12.9891 29.4496 12.9059 29.604 12.7785 29.7157C12.6512 29.8274 12.4883 29.8889 12.3197 29.8889C12.1511 29.8889 11.9882 29.8274 11.8608 29.7157C11.7335 29.604 11.6503 29.4496 11.6265 29.2809L7.90327 3.4569C7.83086 2.93484 7.65743 2.43231 7.39291 1.978C7.12839 1.52369 6.77795 1.1265 6.36159 0.809106C5.94524 0.491715 5.47113 0.260336 4.96631 0.128182C4.4615 -0.00397189 3.93588 -0.034311 3.41947 0.0388915C2.90306 0.112094 2.40597 0.287407 1.95658 0.554822C1.50719 0.822236 1.1143 1.17651 0.800345 1.59743C0.48639 2.01834 0.257511 2.49765 0.126787 3.00799C-0.00393644 3.51832 -0.0339366 4.04969 0.0384736 4.57175C1.06599 12.3227 1.84318 17.8527 2.41208 21.891C3.85096 32.1175 4.09427 33.8589 4.13628 41.0966C5.04729 39.4978 6.35852 38.1696 7.93818 37.2455C9.51785 36.3214 11.3103 35.8339 13.1354 35.832Z" fill="#F5F5F5"/>
<path d="M35.732 44.4695C34.7952 44.4691 33.8731 44.2339 33.0483 43.7849C32.2234 43.3358 31.5217 42.687 31.0058 41.8965C30.4476 43.4075 29.4464 44.7102 28.136 45.6304C26.8257 46.5507 25.2686 47.0445 23.6731 47.046H20.8724C22.1524 47.8657 23.2069 48.999 23.9379 50.3407C24.669 51.6824 25.053 53.1891 25.0542 54.7208V57.1983C25.0542 57.386 24.9805 57.5661 24.8492 57.6988C24.7178 57.8316 24.5397 57.9061 24.354 57.9061C24.1683 57.9061 23.9903 57.8316 23.8589 57.6988C23.7276 57.5661 23.6539 57.386 23.6539 57.1983V54.7208C23.6492 52.6867 22.8469 50.7374 21.4228 49.3004C19.9987 47.8633 18.069 47.0558 16.0569 47.0549C15.8712 47.0549 15.6931 46.9803 15.5618 46.8476C15.4305 46.7148 15.3567 46.5348 15.3567 46.347C15.3567 46.1593 15.4305 45.9793 15.5618 45.8465C15.6931 45.7138 15.8712 45.6392 16.0569 45.6392H23.6749C25.1974 45.6399 26.6703 45.0915 27.8287 44.0925C28.4011 43.5995 28.8844 43.0097 29.2571 42.3495C29.7832 41.4165 30.0702 40.3653 30.092 39.2916C30.092 39.2438 30.092 39.196 30.092 39.1465C30.0902 39.0479 30.0803 38.9496 30.0623 38.8527C30.0623 38.8297 30.0623 38.8067 30.0623 38.7837C29.9784 38.3539 29.7498 37.9668 29.4153 37.6883C29.0808 37.4099 28.6611 37.2573 28.2278 37.2565H13.1354C10.7518 37.2603 8.46698 38.2193 6.78171 39.9233C5.09644 41.6274 4.14826 43.9374 4.14502 46.347C4.14502 51.7603 6.1598 56.6515 9.81651 60.1182C11.6141 61.8088 13.7344 63.1104 16.0473 63.9433C18.3602 64.7761 20.817 65.1227 23.267 64.9616C32.6477 64.3475 39.9979 56.1135 39.9979 46.232V42.5158C39.4662 43.1307 38.8104 43.6233 38.0745 43.9603C37.3386 44.2973 36.5399 44.4709 35.732 44.4695Z" fill="#F5F5F5"/>
<path d="M35.7325 28.297C34.601 28.2984 33.5164 28.7534 32.7163 29.5622C31.9163 30.3709 31.4662 31.4675 31.4648 32.6113V38.6846C31.4871 38.8352 31.4989 38.9871 31.4999 39.1394C31.4999 39.1748 31.4999 39.2119 31.4999 39.2473C31.6245 40.3416 32.1588 41.3461 32.993 42.0547C33.8272 42.7633 34.8981 43.1221 35.9858 43.0576C37.0735 42.993 38.0955 42.51 38.842 41.7077C39.5885 40.9053 40.0029 39.8445 40.0001 38.743V32.6095C39.9987 31.4659 39.5486 30.3695 38.7485 29.561C37.9484 28.7525 36.8637 28.2979 35.7325 28.297Z" fill="#F5F5F5"/>
<path d="M24.4189 23.9968C24.3559 24.018 24.2975 24.041 24.2438 24.0658C24.1826 24.0906 24.1213 24.1153 24.0688 24.1437C24.0163 24.172 23.9428 24.2021 23.8815 24.2339L23.7204 24.3206C23.6539 24.3578 23.5892 24.3985 23.5261 24.441C23.4631 24.4834 23.4351 24.4976 23.3896 24.5294C23.3441 24.5613 23.2548 24.6285 23.19 24.6816C23.1515 24.7117 23.113 24.74 23.0763 24.7719C22.5978 25.1756 22.2128 25.6806 21.9485 26.2511C21.6841 26.8217 21.5469 27.4439 21.5464 28.074V35.832H28.2454C28.8999 35.8308 29.5395 36.0301 30.0799 36.4035V28.074C30.0786 27.0069 29.6865 25.9781 28.9793 25.186C28.272 24.3939 27.2997 23.8946 26.2499 23.7844C26.1051 23.7687 25.9596 23.7611 25.814 23.7614C25.6784 23.7613 25.5428 23.7684 25.4079 23.7827C25.3536 23.7827 25.2993 23.7968 25.2468 23.8039C25.1943 23.811 25.0893 23.8251 25.0123 23.8411C24.9353 23.857 24.8845 23.8694 24.8215 23.8835C24.7585 23.8977 24.692 23.9154 24.6272 23.9349L24.4189 23.9968Z" fill="#F5F5F5"/>
</svg>
